<svg width="111" height="30" viewBox="0 0 111 30" xmlns="http://www.w3.org/2000/svg" role="img" aria-label="Netflix">
  <!-- N -->
  <path d="M0 0h8.4l13.2 18.3V0H30v30h-8.4L8.4 11.7V30H0V0z" fill="#E50914"/>
  <!-- E -->
  <path d="M35 0h22v6.5H43v5.5h13v6H43v6H57V30H35V0z" fill="#E50914"/>
  <!-- T -->
  <path d="M60 0h24v6.5H75V30h-8.5V6.5H60V0z" fill="#E50914"/>
  <!-- F -->
  <path d="M87 0h22v6.5H95v6h13v6H95V30h-8V0z" fill="#E50914"/>
  <!-- L -->
  <path d="M112 0h8v23.5h14V30h-22V0z" fill="#E50914"/>
  <!-- I -->
  <path d="M138 0h8v30h-8V0z" fill="#E50914"/>
  <!-- X -->
  <path d="M150 0h9l6.5 10L172 0h9l-10 14.5L182 30h-9l-7-11-7 11h-9l11-15.5L150 0z" fill="#E50914"/>
</svg>
